Coordinates
version=1
nRows=10
nColumns=34
inDegrees=yes

Units are S.I. units (second, meters, Newtons, ...)
If the header above contains a line with 'inDegrees', this indicates whether rotational values are in degrees (yes) or radians (no).

endheader
time	pelvis_tilt	pelvis_list	pelvis_rotation	pelvis_tx	pelvis_ty	pelvis_tz	hip_flexion_r	hip_adduction_r	hip_rotation_r	knee_angle_r	ankle_angle_r	subtalar_angle_r	mtp_angle_r	hip_flexion_l	hip_adduction_l	hip_rotation_l	knee_angle_l	ankle_angle_l	subtalar_angle_l	mtp_angle_l	lumbar_extension	lumbar_bending	lumbar_rotation	arm_flex_r	arm_add_r	arm_rot_r	elbow_flex_r	pro_sup_r	arm_flex_l	arm_add_l	arm_rot_l	elbow_flex_l	pro_sup_l
      6.46666670	     12.52432291	    -16.47062206	    -55.78756216	      1.68518461	      1.03673513	      4.11148020	     -0.79237679	      7.79125923	     -1.91811812	     30.91358984	     11.82161888	     16.10992084	      0.00000000	    -15.65787148	     16.23937150	     11.34208208	      2.39767835	      4.75734937	    -15.41472859	      0.00000000	    -15.16316509	     -9.41260266	     12.11330126	     26.08784151	     12.19806991	     19.44349058	     19.70166311	    109.83760729	     21.24634245	     13.02966563	     40.95347483	     19.70655795	     94.58923083
      6.48333330	     12.35655710	    -16.30156546	    -55.49857365	      1.68459499	      1.03743414	      4.11257985	     -1.04077254	      7.94329792	     -2.05089688	     30.28423421	     10.70105232	     15.97007244	      0.00000000	    -15.71239663	     15.95638823	     11.62625711	      1.98154608	      4.47492346	    -15.12166178	      0.00000000	    -14.91427997	     -9.52228431	     12.01096631	     25.72633089	     12.20503107	     19.65021780	     20.13313857	    109.91020539	     21.41467498	     12.44736928	     41.10746689	     20.10921577	     94.84717728
      6.50000000	     12.12659269	    -16.30377812	    -55.24726100	      1.68411403	      1.03844159	      4.11379809	     -1.46157518	      8.23238772	     -2.30852785	     29.60437258	      9.72832700	     16.10212839	      0.00000000	    -15.71605549	     15.56244624	     11.94316148	      1.90736834	      4.39521036	    -15.00233997	      0.00000000	    -14.62815014	     -9.46725624	     12.18894127	     25.32569648	     12.11007807	     19.78782612	     20.34904745	    109.95520662	     21.55943509	     12.03739346	     41.23057842	     20.46930460	     95.03866017
      6.51666670	     11.72964138	    -16.42653690	    -54.90918981	      1.68432035	      1.03959193	      4.11477001	     -2.02124492	      8.69389739	     -2.91559696	     28.72503987	      8.81994834	     16.01874659	      0.00000000	    -15.88869404	     14.93709557	     12.33965176	      1.54862805	      4.27653398	    -14.82856637	      0.00000000	    -14.27455036	     -9.08783504	     12.33830783	     24.81011602	     11.93993176	     19.96521037	     20.70925385	    110.01102791	     21.52033142	     11.70791375	     41.47182527	     20.96006812	     95.29739922
      6.53333330	     11.48864441	    -17.54300269	    -54.06946111	      1.68477160	      1.04235799	      4.11543113	     -4.19695171	      9.92773480	     -2.95253712	     26.58881474	      7.66511352	     15.46749271	      0.00000000	    -17.45226885	     13.62655499	     13.78464080	      0.54334707	      4.03035145	    -15.06674575	      0.00000000	    -15.12011840	     -8.14833736	     11.65825821	     24.55993669	     11.97620457	     20.55375936	     21.21645407	    110.19094629	     21.72444053	     11.27842019	     42.47029738	     21.12661757	     96.37897831
      6.55000000	     11.17941392	    -17.32196504	    -53.99567223	      1.68463368	      1.04310192	      4.11676885	     -4.57551269	     10.08292891	     -3.20726024	     25.67708841	      7.36181946	     15.46696106	      0.00000000	    -17.25887686	     13.37626385	     13.71595570	      0.30056618	      3.62699443	    -15.03639947	      0.00000000	    -14.62231925	     -8.17567921	     11.73206527	     24.23005087	     12.03855509	     20.67855540	     21.38357800	    110.22716060	     21.62865863	     10.89149431	     42.55228842	     21.22696191	     96.52172259
      6.56666670	     10.65900653	    -17.71262252	    -53.73907872	      1.68584418	      1.04429781	      4.11859426	     -5.77624542	     10.84576917	     -3.30651889	     24.11322644	      7.41167053	     15.93960445	      0.00000000	    -17.62627939	     12.53804303	     14.32766169	      0.00000000	      3.72513901	    -15.20371632	      0.00000000	    -14.38807309	     -7.42265777	     11.57138950	     23.65769174	     11.98659587	     21.01481692	     22.01518145	    110.34130110	     21.27719108	     10.36984960	     43.14216260	     21.67278307	     97.09368487
      6.58333330	     10.50706458	    -18.24535592	    -53.18195580	      1.68805988	      1.04600324	      4.12063508	     -7.55617993	     11.36781210	     -3.90184044	     22.22542972	      7.71973046	     16.21779465	      0.00000000	    -18.27267535	     11.90833890	     14.98438079	      0.00000000	      3.71809774	    -15.52246124	      0.00000000	    -14.42174386	     -6.86340461	     11.40393164	     23.10652468	     11.91504811	     21.31845058	     22.16860484	    110.48805151	     20.96968405	     10.10426706	     43.89100172	     21.67193011	     98.02511348
      6.60000000	     10.10625007	    -18.20979422	    -53.02583757	      1.69013252	      1.04665537	      4.12270082	     -8.22880127	     11.70024618	     -3.94797745	     21.33051954	      8.95788529	     16.40262195	      0.00000000	    -18.19889489	     11.54934192	     15.13053528	      0.00000000	      3.68916748	    -15.51483737	      0.00000000	    -13.75476040	     -6.56795883	     11.43902647	     22.50649169	     11.90287430	     21.38250113	     22.15315689	    110.52212444	     20.49082211	      9.97249622	     44.07904959	     21.70217004	     98.24451941
      6.61666670	      9.60943013	    -18.35525165	    -52.80916853	      1.69272849	      1.04728788	      4.12448044	     -9.00162103	     12.17333556	     -4.12095420	     20.49912353	     10.25951546	     16.77970249	      0.00000000	    -18.18192309	     11.01134449	     15.43174646	      0.11488875	      4.03870339	    -15.57508590	      0.00000000	    -13.13899587	     -5.95891340	     11.43897754	     21.84065735	     11.77371296	     21.42965685	     22.27948903	    110.56799188	     19.94426644	      9.91541860	     44.39123876	     21.77872126	     98.54885967
